name rise30.2954peak35.7071fall66.7804.mot
datacolumns 19
datarows 12
range 3.89332300000000 3.91165200000000
endheader
time	ground_force1_vx	ground_force1_vy	ground_force1_vz	ground_force1_px	ground_force1_py	ground_force1_pz	ground_force2_vx	ground_force2_vy	ground_force2_vz	ground_force2_px	ground_force2_py	ground_force2_pz	ground_torque1_x	ground_torque1_y	ground_torque1_z	ground_torque2_x	ground_torque2_y	ground_torque2_z	
3.89332300000000	66.04227299999999	790.75605299999995	63.83414000000000	0.31759400000000	0.00000000000000	0.11908600000000	0.00000000000000	0.00000000000000	0.00000000000000	0.00000000000000	0.00000000000000	0.00000000000000	0.00000000000000	24.00286600000000	0.00000000000000	0.00000000000000	0.00000000000000	0.00000000000000	
3.89498800000000	65.36857500000001	792.72890500000005	64.00031100000000	0.31667800000000	0.00000000000000	0.11906900000000	0.00000000000000	0.00000000000000	0.00000000000000	0.00000000000000	0.00000000000000	0.00000000000000	0.00000000000000	24.13160600000000	0.00000000000000	0.00000000000000	0.00000000000000	0.00000000000000	
3.89665600000000	64.69397700000000	794.53675999999996	64.16391400000001	0.31577300000000	0.00000000000000	0.11905300000000	0.00000000000000	0.00000000000000	0.00000000000000	0.00000000000000	0.00000000000000	0.00000000000000	0.00000000000000	24.26039300000000	0.00000000000000	0.00000000000000	0.00000000000000	0.00000000000000	
3.89831900000000	64.01896400000000	796.17870500000004	64.32439700000000	0.31487500000000	0.00000000000000	0.11903700000000	0.00000000000000	0.00000000000000	0.00000000000000	0.00000000000000	0.00000000000000	0.00000000000000	0.00000000000000	24.38879800000000	0.00000000000000	0.00000000000000	0.00000000000000	0.00000000000000	
3.89999300000000	63.34396100000000	797.65409299999999	64.48115799999999	0.31398600000000	0.00000000000000	0.11902300000000	0.00000000000000	0.00000000000000	0.00000000000000	0.00000000000000	0.00000000000000	0.00000000000000	0.00000000000000	24.51636300000000	0.00000000000000	0.00000000000000	0.00000000000000	0.00000000000000	
3.90165900000000	62.66934100000000	798.96255499999995	64.63353900000000	0.31310400000000	0.00000000000000	0.11900900000000	0.00000000000000	0.00000000000000	0.00000000000000	0.00000000000000	0.00000000000000	0.00000000000000	0.00000000000000	24.64260500000000	0.00000000000000	0.00000000000000	0.00000000000000	0.00000000000000	
3.90332600000000	61.99542500000000	800.10400600000003	64.78084500000000	0.31222800000000	0.00000000000000	0.11899600000000	0.00000000000000	0.00000000000000	0.00000000000000	0.00000000000000	0.00000000000000	0.00000000000000	0.00000000000000	24.76701700000000	0.00000000000000	0.00000000000000	0.00000000000000	0.00000000000000	
3.90498700000000	61.32248900000000	801.07865400000003	64.92234100000000	0.31135600000000	0.00000000000000	0.11898400000000	0.00000000000000	0.00000000000000	0.00000000000000	0.00000000000000	0.00000000000000	0.00000000000000	0.00000000000000	24.88907500000000	0.00000000000000	0.00000000000000	0.00000000000000	0.00000000000000	
3.90665800000000	60.65076200000000	801.88700500000004	65.05726400000000	0.31048800000000	0.00000000000000	0.11897200000000	0.00000000000000	0.00000000000000	0.00000000000000	0.00000000000000	0.00000000000000	0.00000000000000	0.00000000000000	25.00824000000000	0.00000000000000	0.00000000000000	0.00000000000000	0.00000000000000	
3.90832200000000	59.98043600000000	802.52986899999996	65.18483000000001	0.30962300000000	0.00000000000000	0.11896100000000	0.00000000000000	0.00000000000000	0.00000000000000	0.00000000000000	0.00000000000000	0.00000000000000	0.00000000000000	25.12396400000000	0.00000000000000	0.00000000000000	0.00000000000000	0.00000000000000	
3.90999200000000	59.31166500000000	803.00835800000004	65.30423999999999	0.30875800000000	0.00000000000000	0.11895000000000	0.00000000000000	0.00000000000000	0.00000000000000	0.00000000000000	0.00000000000000	0.00000000000000	0.00000000000000	25.23569200000000	0.00000000000000	0.00000000000000	0.00000000000000	0.00000000000000	
3.91165200000000	58.64457200000000	803.32389400000000	65.41468700000000	0.30789400000000	0.00000000000000	0.11894000000000	0.00000000000000	0.00000000000000	0.00000000000000	0.00000000000000	0.00000000000000	0.00000000000000	0.00000000000000	25.34286900000000	0.00000000000000	0.00000000000000	0.00000000000000	0.00000000000000	
